<?xml version="1.0"?><!-- Generated by SVGo --><svg width="95" height="69"     viewBox="0 0 95 69"     xmlns="http://www.w3.org/2000/svg"     xmlns:xlink="http://www.w3.org/1999/xlink"><defs><path d="M6 0h45v45H6a6 6 0 0 1-6-6V6a6 6 0 0 1 6-6z" id="a" /></defs><g fill="none" fill-rule="evenodd" transform="scale(1) rotate(180, 47.5, 34.5)" scale="1" ><path d="M17 0h10v69H16C7.163 69 0 61.837 0 53V16C0 7.163 7.163 0 16 0z" fill="#000" /><path d="M22 0H79v69H22z" fill="#FFF" /><path d="M17 7.5h61a5.5 5.5 0 0 1 5.5 5.5v43a5.5 5.5 0 0 1-5.5 5.5H17A9.5 9.5 0 0 1 7.5 52V17A9.5 9.5 0 0 1 17 7.5z" fill="#FFF" stroke="#000" stroke-width="3" /><path d="M79 0h8a8 8 0 0 1 8 8v53a8 8 0 0 1 -8 8h-8V0z" fill="#000" /><defs><linearGradient id="grad" x1="0%" y1="0%" x2="0%" y2="100%"><stop offset="0%" stop-color="#8180ff" stop-opacity="1.00"/><stop offset="20%" stop-color="#0069cc" stop-opacity="1.00"/><stop offset="40%" stop-color="#00cc99" stop-opacity="1.00"/><stop offset="60%" stop-color="#abfaff" stop-opacity="1.00"/><stop offset="80%" stop-color="#8a80ff" stop-opacity="1.00"/><stop offset="100%" stop-color="#8180ff" stop-opacity="1.00"/></linearGradient></defs><rect x="79" y="0" width="2" height="69" fill="url(#grad)" /><g x="12" y="12" transform="translate(12, 12)" ><g fill="#000" ><path d="M0 0h8v45H6a6 6 0 0 1-6-6V6a6 6 0 0 1 6-6zM9 0h1v45H9zM11 0h1v45h-1zM13 0h1v45h-1z" /></g></g><g transform="translate(83, 1)" ><g transform="scale(0.25)" ><path d="M6.368 24.71 H3.166c-.36 0-.647-.328-.647-.691V10.5H.684A.711.711 0 010 9.811V7.195c0-.364.324-.654.684-.654h1.835V5.305C2.519 1.381 4.389 0 8.383 0h1.008c.36 0 .683.29.683.654v2.253c0 .363-.324.69-.683.69h-.216c-1.763 0-2.123.763-2.123 2.508v.436h2.303c.36 0 .683.29.683.654V9.81c0 .363-.323.69-.683.69H7.052V24.02c0 .363-.324.69-.684.69zm9.463 0h-3.238c-.36 0-.648-.328-.648-.691V.69c0-.363.288-.69.648-.69h3.238c.36 0 .684.327.684.69V24.02c0 .363-.324.69-.684.69zm16.955-6.033h3.13c.684 0 .864.364.612.945C35.305 22.82 31.923 25 27.928 25c-5.432 0-9.282-3.852-9.282-9.339s3.994-9.447 9.355-9.447c5.325 0 9.247 3.96 9.247 9.447 0 .654-.216 1.163-.828 1.163H23.36c.287 2.69 2.158 4.143 4.569 4.143 1.511 0 2.914-.582 3.742-1.708.324-.436.72-.582 1.115-.582zm-9.39-4.687h8.994c-.431-2.362-2.23-3.707-4.461-3.707-2.23 0-4.102 1.345-4.534 3.707zm31.776 10.72H51.36c-.288 0-.54-.182-.72-.364l-4.533-5.596-4.425 5.596c-.18.182-.468.363-.756.363h-3.524c-.54 0-.72-.617-.36-1.053l6.369-8.104-6.297-7.921c-.324-.436-.144-1.09.396-1.09h3.74c.288 0 .504.181.72.436l4.353 5.341 4.318-5.341c.144-.182.36-.436.683-.436h3.56c.504 0 .756.617.432 1.053l-6.26 7.922 6.512 8.176c.324.4.18 1.017-.396 1.017zm4.688-9.085c0 2.943 2.195 5.196 4.893 5.196 2.699 0 4.893-2.216 4.893-5.196 0-3.016-2.194-5.196-4.893-5.196-2.698 0-4.893 2.253-4.893 5.196zm13.456 9.084h-3.058c-.36 0-.648-.327-.648-.69V22.42C68.28 24.02 66.372 25 63.998 25c-4.858 0-8.707-4.033-8.707-9.375s3.885-9.411 8.779-9.411c2.302 0 4.21.98 5.54 2.543V7.231c0-.363.288-.69.648-.69h3.058c.36 0 .684.327.684.69V24.02c0 .363-.324.69-.684.69z" fill="#fff" transform="rotate(90, 0, 25)" /></g></g><g fill="#000" x="29" y="12" transform="translate(29, 12)" ><path d="M0 0M0 0v1h1v-1zM0 1v1h1v-1zM0 2v1h1v-1zM0 3v1h1v-1zM0 4v1h1v-1zM0 5v1h1v-1zM0 6v1h1v-1zM0 7v1h1v-1zM0 8v1h1v-1zM0 9v1h1v-1zM0 10v1h1v-1zM0 11v1h1v-1zM0 12v1h1v-1zM0 13v1h1v-1zM0 14v1h1v-1zM1 0v1h1v-1zM1 1v1h1v-1zM1 2v1h1v-1zM1 3v1h1v-1zM1 4v1h1v-1zM1 5v1h1v-1zM1 6v1h1v-1zM1 7v1h1v-1zM1 10v1h1v-1zM1 11v1h1v-1zM1 13v1h1v-1zM1 14v1h1v-1zM2 0v1h1v-1zM2 1v1h1v-1zM2 3v1h1v-1zM2 5v1h1v-1zM2 7v1h1v-1zM2 8v1h1v-1zM2 9v1h1v-1zM2 12v1h1v-1zM2 13v1h1v-1zM2 14v1h1v-1zM3 0v1h1v-1zM3 1v1h1v-1zM3 2v1h1v-1zM3 3v1h1v-1zM3 4v1h1v-1zM3 5v1h1v-1zM3 6v1h1v-1zM3 7v1h1v-1zM3 10v1h1v-1zM3 11v1h1v-1zM3 13v1h1v-1zM3 14v1h1v-1zM4 3v1h1v-1zM4 5v1h1v-1zM4 7v1h1v-1zM5 0v1h1v-1zM5 1v1h1v-1zM5 2v1h1v-1zM5 4v1h1v-1zM5 7v1h1v-1zM5 8v1h1v-1zM5 13v1h1v-1zM5 14v1h1v-1zM6 3v1h1v-1zM6 4v1h1v-1zM6 5v1h1v-1zM6 6v1h1v-1zM6 8v1h1v-1zM6 9v1h1v-1zM6 10v1h1v-1zM7 0v1h1v-1zM7 1v1h1v-1zM7 2v1h1v-1zM7 4v1h1v-1zM7 6v1h1v-1zM7 7v1h1v-1zM7 9v1h1v-1zM7 10v1h1v-1zM7 11v1h1v-1zM8 2v1h1v-1zM8 3v1h1v-1zM8 5v1h1v-1zM8 6v1h1v-1zM8 8v1h1v-1zM8 9v1h1v-1zM8 10v1h1v-1zM8 12v1h1v-1zM9 2v1h1v-1zM9 3v1h1v-1zM9 5v1h1v-1zM9 8v1h1v-1zM9 13v1h1v-1zM10 0v1h1v-1zM10 2v1h1v-1zM10 3v1h1v-1zM10 5v1h1v-1zM10 7v1h1v-1zM10 8v1h1v-1zM10 9v1h1v-1zM10 11v1h1v-1zM10 12v1h1v-1zM10 14v1h1v-1zM11 0v1h1v-1zM11 2v1h1v-1zM11 3v1h1v-1zM11 6v1h1v-1zM11 8v1h1v-1zM11 9v1h1v-1zM11 11v1h1v-1zM11 14v1h1v-1zM12 0v1h1v-1zM12 1v1h1v-1zM12 3v1h1v-1zM12 6v1h1v-1zM12 7v1h1v-1zM12 8v1h1v-1zM12 9v1h1v-1zM12 11v1h1v-1zM12 14v1h1v-1zM13 0v1h1v-1zM13 3v1h1v-1zM13 4v1h1v-1zM13 6v1h1v-1zM13 7v1h1v-1zM13 10v1h1v-1zM13 11v1h1v-1zM13 14v1h1v-1zM14 6v1h1v-1zM14 7v1h1v-1zM14 11v1h1v-1zM14 13v1h1v-1zM15 3v1h1v-1zM15 5v1h1v-1zM15 14v1h1v-1zM17 0v1h1v-1zM17 1v1h1v-1zM17 2v1h1v-1zM17 3v1h1v-1zM17 4v1h1v-1zM17 5v1h1v-1zM17 6v1h1v-1zM17 7v1h1v-1zM17 8v1h1v-1zM17 9v1h1v-1zM17 10v1h1v-1zM17 11v1h1v-1zM17 12v1h1v-1zM17 13v1h1v-1zM17 14v1h1v-1zM18 0v1h1v-1zM18 3v1h1v-1zM18 4v1h1v-1zM18 5v1h1v-1zM18 7v1h1v-1zM19 0v1h1v-1zM19 1v1h1v-1zM19 2v1h1v-1zM19 4v1h1v-1zM19 5v1h1v-1zM19 10v1h1v-1zM19 11v1h1v-1zM19 12v1h1v-1zM19 14v1h1v-1zM20 1v1h1v-1zM20 4v1h1v-1zM20 5v1h1v-1zM20 10v1h1v-1zM20 11v1h1v-1zM20 14v1h1v-1zM21 0v1h1v-1zM21 1v1h1v-1zM21 2v1h1v-1zM21 4v1h1v-1zM21 6v1h1v-1zM21 8v1h1v-1zM21 11v1h1v-1zM21 12v1h1v-1zM21 13v1h1v-1zM21 14v1h1v-1zM22 1v1h1v-1zM22 3v1h1v-1zM22 8v1h1v-1zM22 12v1h1v-1zM22 13v1h1v-1zM22 14v1h1v-1zM23 0v1h1v-1zM23 1v1h1v-1zM23 3v1h1v-1zM23 4v1h1v-1zM23 5v1h1v-1zM23 6v1h1v-1zM23 7v1h1v-1zM23 8v1h1v-1zM23 9v1h1v-1zM23 12v1h1v-1zM24 1v1h1v-1zM24 2v1h1v-1zM24 6v1h1v-1zM24 7v1h1v-1zM24 8v1h1v-1zM24 10v1h1v-1zM24 11v1h1v-1zM24 14v1h1v-1zM25 2v1h1v-1zM25 8v1h1v-1zM25 9v1h1v-1zM25 10v1h1v-1zM25 11v1h1v-1zM25 14v1h1v-1zM26 1v1h1v-1zM26 2v1h1v-1zM26 4v1h1v-1zM26 5v1h1v-1zM26 9v1h1v-1zM26 10v1h1v-1zM26 13v1h1v-1zM26 14v1h1v-1zM27 0v1h1v-1zM27 2v1h1v-1zM27 3v1h1v-1zM27 5v1h1v-1zM27 7v1h1v-1zM27 8v1h1v-1zM27 9v1h1v-1zM27 10v1h1v-1zM27 12v1h1v-1zM27 13v1h1v-1zM28 0v1h1v-1zM28 4v1h1v-1zM28 5v1h1v-1zM28 7v1h1v-1zM28 8v1h1v-1zM28 10v1h1v-1zM28 11v1h1v-1zM28 12v1h1v-1zM28 13v1h1v-1zM29 0v1h1v-1zM29 1v1h1v-1zM29 4v1h1v-1zM29 5v1h1v-1zM29 6v1h1v-1zM29 7v1h1v-1zM29 10v1h1v-1zM29 11v1h1v-1zM29 12v1h1v-1zM29 13v1h1v-1zM29 14v1h1v-1zM30 1v1h1v-1zM30 3v1h1v-1zM30 6v1h1v-1zM30 7v1h1v-1zM30 9v1h1v-1zM30 11v1h1v-1zM30 13v1h1v-1zM30 14v1h1v-1zM31 9v1h1v-1zM31 10v1h1v-1zM31 14v1h1v-1zM32 5v1h1v-1zM32 7v1h1v-1zM32 8v1h1v-1zM32 9v1h1v-1zM32 10v1h1v-1zM32 13v1h1v-1z" /></g><g fill="#000" x="29" y="12" transform="translate(29, 12)" ><path d="M0 0M0 15v1h1v-1zM0 16v1h1v-1zM0 17v1h1v-1zM0 18v1h1v-1zM0 19v1h1v-1zM0 20v1h1v-1zM0 21v1h1v-1zM0 22v1h1v-1zM0 23v1h1v-1zM0 24v1h1v-1zM0 25v1h1v-1zM0 26v1h1v-1zM0 27v1h1v-1zM0 28v1h1v-1zM0 29v1h1v-1zM1 15v1h1v-1zM1 16v1h1v-1zM1 17v1h1v-1zM1 18v1h1v-1zM1 19v1h1v-1zM1 20v1h1v-1zM1 21v1h1v-1zM1 22v1h1v-1zM1 25v1h1v-1zM1 26v1h1v-1zM1 28v1h1v-1zM1 29v1h1v-1zM2 15v1h1v-1zM2 16v1h1v-1zM2 18v1h1v-1zM2 20v1h1v-1zM2 22v1h1v-1zM2 23v1h1v-1zM2 24v1h1v-1zM2 27v1h1v-1zM2 28v1h1v-1zM2 29v1h1v-1zM3 15v1h1v-1zM3 16v1h1v-1zM3 17v1h1v-1zM3 18v1h1v-1zM3 19v1h1v-1zM3 20v1h1v-1zM3 21v1h1v-1zM3 22v1h1v-1zM3 25v1h1v-1zM3 26v1h1v-1zM3 28v1h1v-1zM3 29v1h1v-1zM4 18v1h1v-1zM4 20v1h1v-1zM4 22v1h1v-1zM5 15v1h1v-1zM5 16v1h1v-1zM5 17v1h1v-1zM5 19v1h1v-1zM5 22v1h1v-1zM5 23v1h1v-1zM5 28v1h1v-1zM5 29v1h1v-1zM6 18v1h1v-1zM6 19v1h1v-1zM6 20v1h1v-1zM6 21v1h1v-1zM6 23v1h1v-1zM6 24v1h1v-1zM6 25v1h1v-1zM7 15v1h1v-1zM7 16v1h1v-1zM7 17v1h1v-1zM7 19v1h1v-1zM7 21v1h1v-1zM7 22v1h1v-1zM7 24v1h1v-1zM7 25v1h1v-1zM7 26v1h1v-1zM8 17v1h1v-1zM8 18v1h1v-1zM8 20v1h1v-1zM8 21v1h1v-1zM8 23v1h1v-1zM8 24v1h1v-1zM8 25v1h1v-1zM8 27v1h1v-1zM9 17v1h1v-1zM9 18v1h1v-1zM9 20v1h1v-1zM9 23v1h1v-1zM9 28v1h1v-1zM10 15v1h1v-1zM10 17v1h1v-1zM10 18v1h1v-1zM10 20v1h1v-1zM10 22v1h1v-1zM10 23v1h1v-1zM10 24v1h1v-1zM10 26v1h1v-1zM10 27v1h1v-1zM10 29v1h1v-1zM11 15v1h1v-1zM11 17v1h1v-1zM11 18v1h1v-1zM11 21v1h1v-1zM11 23v1h1v-1zM11 24v1h1v-1zM11 26v1h1v-1zM11 29v1h1v-1zM12 15v1h1v-1zM12 16v1h1v-1zM12 18v1h1v-1zM12 21v1h1v-1zM12 22v1h1v-1zM12 23v1h1v-1zM12 24v1h1v-1zM12 26v1h1v-1zM12 29v1h1v-1zM13 15v1h1v-1zM13 18v1h1v-1zM13 19v1h1v-1zM13 21v1h1v-1zM13 22v1h1v-1zM13 25v1h1v-1zM13 26v1h1v-1zM13 29v1h1v-1zM14 21v1h1v-1zM14 22v1h1v-1zM14 26v1h1v-1zM14 28v1h1v-1zM15 18v1h1v-1zM15 20v1h1v-1zM15 29v1h1v-1zM17 15v1h1v-1zM17 16v1h1v-1zM17 17v1h1v-1zM17 18v1h1v-1zM17 19v1h1v-1zM17 20v1h1v-1zM17 21v1h1v-1zM17 22v1h1v-1zM17 23v1h1v-1zM17 24v1h1v-1zM17 25v1h1v-1zM17 26v1h1v-1zM17 27v1h1v-1zM17 28v1h1v-1zM17 29v1h1v-1zM18 15v1h1v-1zM18 18v1h1v-1zM18 19v1h1v-1zM18 20v1h1v-1zM18 22v1h1v-1zM19 15v1h1v-1zM19 16v1h1v-1zM19 17v1h1v-1zM19 19v1h1v-1zM19 20v1h1v-1zM19 25v1h1v-1zM19 26v1h1v-1zM19 27v1h1v-1zM19 29v1h1v-1zM20 16v1h1v-1zM20 19v1h1v-1zM20 20v1h1v-1zM20 25v1h1v-1zM20 26v1h1v-1zM20 29v1h1v-1zM21 15v1h1v-1zM21 16v1h1v-1zM21 17v1h1v-1zM21 19v1h1v-1zM21 21v1h1v-1zM21 23v1h1v-1zM21 26v1h1v-1zM21 27v1h1v-1zM21 28v1h1v-1zM21 29v1h1v-1zM22 16v1h1v-1zM22 18v1h1v-1zM22 23v1h1v-1zM22 27v1h1v-1zM22 28v1h1v-1zM22 29v1h1v-1zM23 15v1h1v-1zM23 16v1h1v-1zM23 18v1h1v-1zM23 19v1h1v-1zM23 20v1h1v-1zM23 21v1h1v-1zM23 22v1h1v-1zM23 23v1h1v-1zM23 24v1h1v-1zM23 27v1h1v-1zM24 16v1h1v-1zM24 17v1h1v-1zM24 21v1h1v-1zM24 22v1h1v-1zM24 23v1h1v-1zM24 25v1h1v-1zM24 26v1h1v-1zM24 29v1h1v-1zM25 17v1h1v-1zM25 23v1h1v-1zM25 24v1h1v-1zM25 25v1h1v-1zM25 26v1h1v-1zM25 29v1h1v-1zM26 16v1h1v-1zM26 17v1h1v-1zM26 19v1h1v-1zM26 20v1h1v-1zM26 24v1h1v-1zM26 25v1h1v-1zM26 28v1h1v-1zM26 29v1h1v-1zM27 15v1h1v-1zM27 17v1h1v-1zM27 18v1h1v-1zM27 20v1h1v-1zM27 22v1h1v-1zM27 23v1h1v-1zM27 24v1h1v-1zM27 25v1h1v-1zM27 27v1h1v-1zM27 28v1h1v-1zM28 15v1h1v-1zM28 19v1h1v-1zM28 20v1h1v-1zM28 22v1h1v-1zM28 23v1h1v-1zM28 25v1h1v-1zM28 26v1h1v-1zM28 27v1h1v-1zM28 28v1h1v-1zM29 15v1h1v-1zM29 16v1h1v-1zM29 19v1h1v-1zM29 20v1h1v-1zM29 21v1h1v-1zM29 22v1h1v-1zM29 25v1h1v-1zM29 26v1h1v-1zM29 27v1h1v-1zM29 28v1h1v-1zM29 29v1h1v-1zM30 16v1h1v-1zM30 18v1h1v-1zM30 21v1h1v-1zM30 22v1h1v-1zM30 24v1h1v-1zM30 26v1h1v-1zM30 28v1h1v-1zM30 29v1h1v-1zM31 24v1h1v-1zM31 25v1h1v-1zM31 29v1h1v-1zM32 20v1h1v-1zM32 22v1h1v-1zM32 23v1h1v-1zM32 24v1h1v-1zM32 25v1h1v-1zM32 28v1h1v-1z" /></g><g fill="#000" x="29" y="12" transform="translate(29, 12)" ><path d="M0 0M0 30v1h1v-1zM0 31v1h1v-1zM0 32v1h1v-1zM0 33v1h1v-1zM0 34v1h1v-1zM0 35v1h1v-1zM0 36v1h1v-1zM0 37v1h1v-1zM0 38v1h1v-1zM0 39v1h1v-1zM0 40v1h1v-1zM0 41v1h1v-1zM0 42v1h1v-1zM0 43v1h1v-1zM0 44v1h1v-1zM1 30v1h1v-1zM1 31v1h1v-1zM1 32v1h1v-1zM1 33v1h1v-1zM1 34v1h1v-1zM1 35v1h1v-1zM1 36v1h1v-1zM1 37v1h1v-1zM1 40v1h1v-1zM1 41v1h1v-1zM1 43v1h1v-1zM1 44v1h1v-1zM2 30v1h1v-1zM2 31v1h1v-1zM2 33v1h1v-1zM2 35v1h1v-1zM2 37v1h1v-1zM2 38v1h1v-1zM2 39v1h1v-1zM2 42v1h1v-1zM2 43v1h1v-1zM2 44v1h1v-1zM3 30v1h1v-1zM3 31v1h1v-1zM3 32v1h1v-1zM3 33v1h1v-1zM3 34v1h1v-1zM3 35v1h1v-1zM3 36v1h1v-1zM3 37v1h1v-1zM3 40v1h1v-1zM3 41v1h1v-1zM3 43v1h1v-1zM3 44v1h1v-1zM4 33v1h1v-1zM4 35v1h1v-1zM4 37v1h1v-1zM5 30v1h1v-1zM5 31v1h1v-1zM5 32v1h1v-1zM5 34v1h1v-1zM5 37v1h1v-1zM5 38v1h1v-1zM5 43v1h1v-1zM5 44v1h1v-1zM6 33v1h1v-1zM6 34v1h1v-1zM6 35v1h1v-1zM6 36v1h1v-1zM6 38v1h1v-1zM6 39v1h1v-1zM6 40v1h1v-1zM7 30v1h1v-1zM7 31v1h1v-1zM7 32v1h1v-1zM7 34v1h1v-1zM7 36v1h1v-1zM7 37v1h1v-1zM7 39v1h1v-1zM7 40v1h1v-1zM7 41v1h1v-1zM8 32v1h1v-1zM8 33v1h1v-1zM8 35v1h1v-1zM8 36v1h1v-1zM8 38v1h1v-1zM8 39v1h1v-1zM8 40v1h1v-1zM8 42v1h1v-1zM9 32v1h1v-1zM9 33v1h1v-1zM9 35v1h1v-1zM9 38v1h1v-1zM9 43v1h1v-1zM10 30v1h1v-1zM10 32v1h1v-1zM10 33v1h1v-1zM10 35v1h1v-1zM10 37v1h1v-1zM10 38v1h1v-1zM10 39v1h1v-1zM10 41v1h1v-1zM10 42v1h1v-1zM10 44v1h1v-1zM11 30v1h1v-1zM11 32v1h1v-1zM11 33v1h1v-1zM11 36v1h1v-1zM11 38v1h1v-1zM11 39v1h1v-1zM11 41v1h1v-1zM11 44v1h1v-1zM12 30v1h1v-1zM12 31v1h1v-1zM12 33v1h1v-1zM12 36v1h1v-1zM12 37v1h1v-1zM12 38v1h1v-1zM12 39v1h1v-1zM12 41v1h1v-1zM12 44v1h1v-1zM13 30v1h1v-1zM13 33v1h1v-1zM13 34v1h1v-1zM13 36v1h1v-1zM13 37v1h1v-1zM13 40v1h1v-1zM13 41v1h1v-1zM13 44v1h1v-1zM14 36v1h1v-1zM14 37v1h1v-1zM14 41v1h1v-1zM14 43v1h1v-1zM15 33v1h1v-1zM15 35v1h1v-1zM15 44v1h1v-1zM17 30v1h1v-1zM17 31v1h1v-1zM17 32v1h1v-1zM17 33v1h1v-1zM17 34v1h1v-1zM17 35v1h1v-1zM17 36v1h1v-1zM17 37v1h1v-1zM17 38v1h1v-1zM17 39v1h1v-1zM17 40v1h1v-1zM17 41v1h1v-1zM17 42v1h1v-1zM17 43v1h1v-1zM17 44v1h1v-1zM18 30v1h1v-1zM18 33v1h1v-1zM18 34v1h1v-1zM18 35v1h1v-1zM18 37v1h1v-1zM19 30v1h1v-1zM19 31v1h1v-1zM19 32v1h1v-1zM19 34v1h1v-1zM19 35v1h1v-1zM19 40v1h1v-1zM19 41v1h1v-1zM19 42v1h1v-1zM19 44v1h1v-1zM20 31v1h1v-1zM20 34v1h1v-1zM20 35v1h1v-1zM20 40v1h1v-1zM20 41v1h1v-1zM20 44v1h1v-1zM21 30v1h1v-1zM21 31v1h1v-1zM21 32v1h1v-1zM21 34v1h1v-1zM21 36v1h1v-1zM21 38v1h1v-1zM21 41v1h1v-1zM21 42v1h1v-1zM21 43v1h1v-1zM21 44v1h1v-1zM22 31v1h1v-1zM22 33v1h1v-1zM22 38v1h1v-1zM22 42v1h1v-1zM22 43v1h1v-1zM22 44v1h1v-1zM23 30v1h1v-1zM23 31v1h1v-1zM23 33v1h1v-1zM23 34v1h1v-1zM23 35v1h1v-1zM23 36v1h1v-1zM23 37v1h1v-1zM23 38v1h1v-1zM23 39v1h1v-1zM23 42v1h1v-1zM24 31v1h1v-1zM24 32v1h1v-1zM24 36v1h1v-1zM24 37v1h1v-1zM24 38v1h1v-1zM24 40v1h1v-1zM24 41v1h1v-1zM24 44v1h1v-1zM25 32v1h1v-1zM25 38v1h1v-1zM25 39v1h1v-1zM25 40v1h1v-1zM25 41v1h1v-1zM25 44v1h1v-1zM26 31v1h1v-1zM26 32v1h1v-1zM26 34v1h1v-1zM26 35v1h1v-1zM26 39v1h1v-1zM26 40v1h1v-1zM26 43v1h1v-1zM26 44v1h1v-1zM27 30v1h1v-1zM27 32v1h1v-1zM27 33v1h1v-1zM27 35v1h1v-1zM27 37v1h1v-1zM27 38v1h1v-1zM27 39v1h1v-1zM27 40v1h1v-1zM27 42v1h1v-1zM27 43v1h1v-1zM28 30v1h1v-1zM28 34v1h1v-1zM28 35v1h1v-1zM28 37v1h1v-1zM28 38v1h1v-1zM28 40v1h1v-1zM28 41v1h1v-1zM28 42v1h1v-1zM28 43v1h1v-1zM29 30v1h1v-1zM29 31v1h1v-1zM29 34v1h1v-1zM29 35v1h1v-1zM29 36v1h1v-1zM29 37v1h1v-1zM29 40v1h1v-1zM29 41v1h1v-1zM29 42v1h1v-1zM29 43v1h1v-1zM29 44v1h1v-1zM30 31v1h1v-1zM30 33v1h1v-1zM30 36v1h1v-1zM30 37v1h1v-1zM30 39v1h1v-1zM30 41v1h1v-1zM30 43v1h1v-1zM30 44v1h1v-1zM31 39v1h1v-1zM31 40v1h1v-1zM31 44v1h1v-1zM32 35v1h1v-1zM32 37v1h1v-1zM32 38v1h1v-1zM32 39v1h1v-1zM32 40v1h1v-1zM32 43v1h1v-1z" /></g><rect x="63" y="12" width="14" height="45" fill="black" /><rect x="67" y="12" width="1" height="45" fill="white" /><rect x="69" y="12" width="1" height="45" fill="white" /><rect x="71" y="12" width="1" height="45" fill="white" /><g fill="#000" x="25" y="0" transform="translate(25, 0) scale(0.5)" ><rect x="0" y="2" width="1" height="10" /><rect x="1" y="2" width="1" height="10" /><rect x="3" y="2" width="1" height="10" /><rect x="5" y="2" width="1" height="10" /><rect x="6" y="2" width="1" height="10" /><rect x="7" y="2" width="1" height="10" /><rect x="11" y="2" width="1" height="10" /><rect x="12" y="2" width="1" height="10" /><rect x="14" y="2" width="1" height="10" /><rect x="15" y="2" width="1" height="10" /><rect x="16" y="2" width="1" height="10" /><rect x="17" y="2" width="1" height="10" /><rect x="19" y="2" width="1" height="10" /><rect x="23" y="2" width="1" height="10" /><rect x="28" y="2" width="1" height="10" /><rect x="30" y="2" width="1" height="10" /><rect x="33" y="2" width="1" height="10" /><rect x="34" y="2" width="1" height="10" /><rect x="36" y="2" width="1" height="10" /><rect x="39" y="2" width="1" height="10" /><rect x="40" y="2" width="1" height="10" /><rect x="43" y="2" width="1" height="10" /><rect x="44" y="2" width="1" height="10" /><rect x="45" y="2" width="1" height="10" /><rect x="47" y="2" width="1" height="10" /><rect x="48" y="2" width="1" height="10" /><rect x="52" y="2" width="1" height="10" /><rect x="53" y="2" width="1" height="10" /><rect x="54" y="2" width="1" height="10" /><rect x="56" y="2" width="1" height="10" /><rect x="58" y="2" width="1" height="10" /><rect x="59" y="2" width="1" height="10" /><rect x="60" y="2" width="1" height="10" /><rect x="62" y="2" width="1" height="10" /><rect x="66" y="2" width="1" height="10" /><rect x="67" y="2" width="1" height="10" /><rect x="70" y="2" width="1" height="10" /><rect x="71" y="2" width="1" height="10" /><rect x="74" y="2" width="1" height="10" /><rect x="75" y="2" width="1" height="10" /><rect x="77" y="2" width="1" height="10" /><rect x="78" y="2" width="1" height="10" /><rect x="81" y="2" width="1" height="10" /><rect x="83" y="2" width="1" height="10" /><rect x="84" y="2" width="1" height="10" /><rect x="85" y="2" width="1" height="10" /><rect x="86" y="2" width="1" height="10" /><rect x="89" y="2" width="1" height="10" /><rect x="92" y="2" width="1" height="10" /><rect x="93" y="2" width="1" height="10" /><rect x="94" y="2" width="1" height="10" /><rect x="97" y="2" width="1" height="10" /><rect x="99" y="2" width="1" height="10" /><rect x="100" y="2" width="1" height="10" /></g><g fill="#000" x="25" y="0" transform="translate(25, 0) scale(0.5)" ><rect x="0" y="126" width="1" height="10" /><rect x="1" y="126" width="1" height="10" /><rect x="3" y="126" width="1" height="10" /><rect x="5" y="126" width="1" height="10" /><rect x="6" y="126" width="1" height="10" /><rect x="7" y="126" width="1" height="10" /><rect x="11" y="126" width="1" height="10" /><rect x="12" y="126" width="1" height="10" /><rect x="14" y="126" width="1" height="10" /><rect x="15" y="126" width="1" height="10" /><rect x="16" y="126" width="1" height="10" /><rect x="17" y="126" width="1" height="10" /><rect x="19" y="126" width="1" height="10" /><rect x="23" y="126" width="1" height="10" /><rect x="28" y="126" width="1" height="10" /><rect x="30" y="126" width="1" height="10" /><rect x="33" y="126" width="1" height="10" /><rect x="34" y="126" width="1" height="10" /><rect x="36" y="126" width="1" height="10" /><rect x="39" y="126" width="1" height="10" /><rect x="40" y="126" width="1" height="10" /><rect x="43" y="126" width="1" height="10" /><rect x="44" y="126" width="1" height="10" /><rect x="45" y="126" width="1" height="10" /><rect x="47" y="126" width="1" height="10" /><rect x="48" y="126" width="1" height="10" /><rect x="52" y="126" width="1" height="10" /><rect x="53" y="126" width="1" height="10" /><rect x="54" y="126" width="1" height="10" /><rect x="56" y="126" width="1" height="10" /><rect x="58" y="126" width="1" height="10" /><rect x="59" y="126" width="1" height="10" /><rect x="60" y="126" width="1" height="10" /><rect x="62" y="126" width="1" height="10" /><rect x="66" y="126" width="1" height="10" /><rect x="67" y="126" width="1" height="10" /><rect x="70" y="126" width="1" height="10" /><rect x="71" y="126" width="1" height="10" /><rect x="74" y="126" width="1" height="10" /><rect x="75" y="126" width="1" height="10" /><rect x="77" y="126" width="1" height="10" /><rect x="78" y="126" width="1" height="10" /><rect x="81" y="126" width="1" height="10" /><rect x="83" y="126" width="1" height="10" /><rect x="84" y="126" width="1" height="10" /><rect x="85" y="126" width="1" height="10" /><rect x="86" y="126" width="1" height="10" /><rect x="89" y="126" width="1" height="10" /><rect x="92" y="126" width="1" height="10" /><rect x="93" y="126" width="1" height="10" /><rect x="94" y="126" width="1" height="10" /><rect x="97" y="126" width="1" height="10" /><rect x="99" y="126" width="1" height="10" /><rect x="100" y="126" width="1" height="10" /></g></g></svg>
