<?xml version="1.0" encoding="UTF-8"?>
<svg width="99px" height="12px" viewBox="0 0 99 12" version="1.1" xmlns="http://www.w3.org/2000/svg" xmlns:xlink="http://www.w3.org/1999/xlink">
    <title>c1</title>
    <g id="c1" stroke="none" stroke-width="1" fill="none" fill-rule="evenodd">
        <path d="M0,0 L3,0 L3,12 L0,12 L0,0 Z M21,0 L21,6 L27,6 L27,12 L15,12 L15,0 L21,0 Z M36,0 L36,12 L33,12 L33,6 L27,6 L27,0 L36,0 Z M42,12 L39,12 L39,6 L42,6 L42,0 L48,0 L48,12 L45,12 L45,6 L42,6 L42,12 Z M75,0 L75,6 L78,6 L78,12 L63,12 L63,6 L57,6 L57,0 L75,0 Z M84,12 L81,12 L81,6 L84,6 L84,0 L99,0 L99,12 L93,12 L93,6 L90,6 L90,12 L87,12 L87,6 L84,6 L84,12 Z M81,0 L81,6 L78,6 L78,0 L81,0 Z M6,0 L9,0 L9,6 L6,6 L6,0 Z M51,0 L54,0 L54,6 L51,6 L51,0 Z" id="Shape" fill="#000000" fill-rule="nonzero"></path>
    </g>
</svg>
