<?xml version="1.0" encoding="UTF-8"?>
<svg width="99px" height="12px" viewBox="0 0 99 12" version="1.1" xmlns="http://www.w3.org/2000/svg" xmlns:xlink="http://www.w3.org/1999/xlink">
    <title>c2</title>
    <g id="c2" stroke="none" stroke-width="1" fill="none" fill-rule="evenodd">
        <path d="M6,0 L6,12 L3,12 L3,6 L0,6 L0,0 L6,0 Z M24,12 L18,12 L18,0 L30,0 L30,6 L24,6 L24,12 Z M33,12 L33,6 L36,6 L36,0 L39,0 L39,12 L33,12 Z M42,12 L42,6 L45,6 L45,0 L48,0 L48,12 L42,12 Z M60,12 L60,6 L69,6 L69,12 L60,12 Z M60,0 L60,6 L57,6 L57,0 L60,0 Z M72,12 L72,0 L81,0 L81,12 L72,12 Z M93,12 L90,12 L90,6 L93,6 L93,0 L99,0 L99,12 L96,12 L96,6 L93,6 L93,12 Z M90,0 L90,6 L87,6 L87,0 L90,0 Z" id="Shape" fill="#000000" fill-rule="nonzero"></path>
    </g>
</svg>
