<svg xmlns="http://www.w3.org/2000/svg" width="52" height="17" viewBox="0 0 52 17">
    <g transform="rotate(90, 8.5, 8.5) translate(0, -35)">
        <path xmlns="http://www.w3.org/2000/svg" d="m9.47383146 42.7011282h-2.96039715v6.0816855h-3.50678096v-6.197326h-3.00665335v9.4121323h16.0046471v-3.2148063h-6.53081564zm-9.47383146-4.7955618v3.0991658h16.0046471v-3.0991658zm3.4229592-7.5246779c0-3.6389967 2.31932102-5.9526671 5.87862536-6.0559543l.25032186-.0036086c.30066533 0 .74009928 0 1.27204568.0462562v8.8349352c1.6420953-.1618967 2.6366037-1.3183018 2.6366037-3.0760376 0-1.572711-.8326117-2.474707-1.8502482-3.1222939l1.3876861-2.2896822c1.5495829.7400993 3.2148063 2.4053227 3.2148063 5.4119761 0 3.7467526-2.4284508 6.3371001-6.36022825 6.3371001-3.70049643 0-6.42961255-2.4978351-6.42961255-6.082691zm0-23.17726771c0-1.44730439.55507447-2.78496451 1.36455806-3.464759h-1.15640513v-2.89021414h12.37353497v2.84635644h-1.2257895c.6013307.46050594 1.4339424 1.62273522 1.4339424 3.5086167 0 3.57440331-2.5672194 6.00850611-6.40648445 6.00850611-3.65424023 0-6.38335635-2.412174-6.38335635-6.00850611zm.20815293 13.89485391 3.51547161-2.4978351-3.51547161-2.497835v-3.3998311l5.96705049 4.2324428 6.40648448-4.4637239v3.4692154l-3.8855213 2.7985005 3.8855213 2.8216285v3.3535749l-6.31397206-4.4868519-6.05956291 4.2555709zm2.54409129-14.01529501c0 1.93069379 1.57271099 3.03011661 3.63111213 3.03011661 2.10465735 0 3.65424025-1.11953421 3.65424025-3.03011661s-1.5495829-3.22787868-3.65424025-3.22787868c-2.08152924 0-3.63111213 1.40444565-3.63111213 3.22787868zm-.13876861 23.32083691c0 1.572711 1.04076462 2.5672194 2.45157888 2.7291161v-5.5970008c-1.38768616.1387686-2.45157888 1.1795332-2.45157888 2.8678847z" fill="#FFF"/>
    </g>
</svg>
