<?xml version="1.0" encoding="UTF-8"?>
<svg width="17px" height="52px" viewBox="0 0 17 52" version="1.1" xmlns="http://www.w3.org/2000/svg" xmlns:xlink="http://www.w3.org/1999/xlink">
    <title>f</title>
    <g id="f" stroke="none" stroke-width="1" fill="none" fill-rule="evenodd">
        <path d="M9.47383146,42.7011282 L6.51343431,42.7011282 L6.51343431,48.7828137 L3.00665335,48.7828137 L3.00665335,42.5854877 L0,42.5854877 L0,51.99762 L16.0046471,51.99762 L16.0046471,48.7828137 L9.47383146,48.7828137 L9.47383146,42.7011282 Z M0,37.9055664 L0,41.0047322 L16.0046471,41.0047322 L16.0046471,37.9055664 L0,37.9055664 Z M3.4229592,30.3808885 C3.4229592,26.7418918 5.74228022,24.4282214 9.30158456,24.3249342 L9.55190642,24.3213256 C9.85257175,24.3213256 10.2920057,24.3213256 10.8239521,24.3675818 L10.8239521,33.202517 C12.4660474,33.0406203 13.4605558,31.8842152 13.4605558,30.1264794 C13.4605558,28.5537684 12.6279441,27.6517724 11.6103076,27.0041855 L12.9979937,24.7145033 C14.5475766,25.4546026 16.2128,27.119826 16.2128,30.1264794 C16.2128,33.873232 13.7843492,36.4635795 9.85257175,36.4635795 C6.15207532,36.4635795 3.4229592,33.9657444 3.4229592,30.3808885 Z M3.4229592,7.20362079 C3.4229592,5.7563164 3.97803367,4.41865628 4.78751726,3.73886179 L3.63111213,3.73886179 L3.63111213,0.848647654 L16.0046471,0.848647654 L16.0046471,3.69500409 L14.7788576,3.69500409 C15.3801883,4.15551003 16.2128,5.31773931 16.2128,7.20362079 C16.2128,10.7780241 13.6455806,13.2121269 9.80631555,13.2121269 C6.15207532,13.2121269 3.4229592,10.7999529 3.4229592,7.20362079 Z M3.63111213,21.0984747 L7.14658374,18.6006396 L3.63111213,16.1028046 L3.63111213,12.7029735 L9.59816262,16.9354163 L16.0046471,12.4716924 L16.0046471,15.9409078 L12.1191258,18.7394083 L16.0046471,21.5610368 L16.0046471,24.9146117 L9.69067504,20.4277598 L3.63111213,24.6833307 L3.63111213,21.0984747 Z M6.17520342,7.08317969 C6.17520342,9.01387348 7.74791441,10.1132963 9.80631555,10.1132963 C11.9109729,10.1132963 13.4605558,8.99376209 13.4605558,7.08317969 C13.4605558,5.17259729 11.9109729,3.85530101 9.80631555,3.85530101 C7.72478631,3.85530101 6.17520342,5.25974666 6.17520342,7.08317969 Z M6.03643481,30.4040166 C6.03643481,31.9767276 7.07719943,32.971236 8.48801369,33.1331327 L8.48801369,27.5361319 C7.10032753,27.6749005 6.03643481,28.7156651 6.03643481,30.4040166 Z" id="Shape" fill="#FFFFFF" fill-rule="nonzero"></path>
    </g>
</svg>
